<svg width="669" height="198" viewBox="0 0 669 198" fill="none" xmlns="http://www.w3.org/2000/svg">
<path fill-rule="evenodd" clip-rule="evenodd" d="M364.671 131.292C366.214 136.595 361.594 141.162 356.071 141.162L340.81 141.162C335.287 141.162 330.81 136.685 330.81 131.162L330.81 115.901C330.81 110.378 335.377 105.758 340.68 107.301C352.218 110.659 361.314 119.754 364.671 131.292Z" fill="#FFE354"/>
<path d="M340.68 107.301L341.379 104.901L340.68 107.301ZM340.81 141.162L340.81 143.662L340.81 141.162ZM364.671 131.292L362.271 131.991L364.671 131.292ZM356.071 138.662L340.81 138.662L340.81 143.662L356.071 143.662V138.662ZM333.31 131.162V115.901H328.31V131.162H333.31ZM339.982 109.701C350.699 112.82 359.152 121.273 362.271 131.991L367.072 130.594C363.475 118.234 353.738 108.497 341.379 104.901L339.982 109.701ZM333.31 115.901C333.31 113.812 334.178 111.955 335.445 110.795C336.672 109.671 338.251 109.198 339.982 109.701L341.379 104.901C337.806 103.861 334.45 104.926 332.068 107.108C329.726 109.252 328.31 112.467 328.31 115.901H333.31ZM340.81 138.662C336.668 138.662 333.31 135.304 333.31 131.162H328.31C328.31 138.066 333.906 143.662 340.81 143.662L340.81 138.662ZM356.071 143.662C359.505 143.662 362.72 142.246 364.865 139.904C367.046 137.522 368.111 134.166 367.072 130.594L362.271 131.991C362.774 133.721 362.301 135.3 361.177 136.527C360.017 137.794 358.16 138.662 356.071 138.662V143.662Z" fill="white"/>
<path fill-rule="evenodd" clip-rule="evenodd" d="M291.307 131.292C289.764 136.595 294.384 141.162 299.907 141.162H315.168C320.691 141.162 325.168 136.685 325.168 131.162V115.901C325.168 110.378 320.601 105.758 315.298 107.301C303.76 110.659 294.665 119.754 291.307 131.292Z" fill="#E94646"/>
<path d="M315.298 107.301L315.997 109.701L315.298 107.301ZM291.307 131.292L293.708 131.991L291.307 131.292ZM325.168 131.162H327.668H325.168ZM315.168 138.662H299.907V143.662H315.168V138.662ZM322.668 115.901L322.668 131.162H327.668V115.901L322.668 115.901ZM293.708 131.991C296.826 121.273 305.28 112.82 315.997 109.701L314.6 104.901C302.241 108.497 292.503 118.234 288.907 130.594L293.708 131.991ZM327.668 115.901C327.668 112.467 326.253 109.252 323.91 107.108C321.528 104.926 318.172 103.861 314.6 104.901L315.997 109.701C317.727 109.198 319.307 109.671 320.534 110.795C321.8 111.955 322.668 113.812 322.668 115.901L327.668 115.901ZM299.907 138.662C297.819 138.662 295.961 137.794 294.801 136.527C293.678 135.3 293.204 133.721 293.708 131.991L288.907 130.594C287.867 134.166 288.932 137.522 291.114 139.904C293.259 142.246 296.473 143.662 299.907 143.662V138.662ZM315.168 143.662C322.072 143.662 327.668 138.066 327.668 131.162H322.668C322.668 135.304 319.311 138.662 315.168 138.662V143.662Z" fill="white"/>
<path fill-rule="evenodd" clip-rule="evenodd" d="M299.907 146.451C294.385 146.451 289.764 151.018 291.307 156.321C294.665 167.86 303.76 176.955 315.298 180.312C320.601 181.855 325.168 177.235 325.168 171.712L325.168 156.451C325.168 150.928 320.691 146.451 315.168 146.451H299.907Z" fill="#A74DE3"/>
<path d="M315.168 146.451L315.168 143.951L315.168 146.451ZM291.307 156.321L293.708 155.623L291.307 156.321ZM315.997 177.912C305.28 174.793 296.826 166.34 293.708 155.623L288.907 157.02C292.503 169.379 302.241 179.116 314.6 182.713L315.997 177.912ZM322.668 156.451V171.712H327.668V156.451H322.668ZM299.907 148.951L315.168 148.951L315.168 143.951H299.907V148.951ZM327.668 156.451C327.668 149.548 322.072 143.951 315.168 143.951L315.168 148.951C319.311 148.951 322.668 152.309 322.668 156.451H327.668ZM293.708 155.623C293.204 153.892 293.678 152.313 294.801 151.086C295.962 149.819 297.819 148.951 299.907 148.951V143.951C296.473 143.951 293.259 145.367 291.114 147.709C288.932 150.092 287.867 153.447 288.907 157.02L293.708 155.623ZM314.6 182.713C318.172 183.752 321.528 182.687 323.91 180.506C326.253 178.361 327.668 175.146 327.668 171.712H322.668C322.668 173.801 321.801 175.658 320.534 176.818C319.307 177.942 317.727 178.415 315.997 177.912L314.6 182.713Z" fill="white"/>
<path fill-rule="evenodd" clip-rule="evenodd" d="M330.81 171.712C330.81 177.235 335.377 181.855 340.68 180.312C352.218 176.955 361.314 167.86 364.671 156.321C366.214 151.018 361.594 146.451 356.071 146.451L340.81 146.451C335.287 146.451 330.81 150.928 330.81 156.451L330.81 171.712Z" fill="#2D75D4"/>
<path d="M330.81 171.712L333.31 171.712L330.81 171.712ZM362.271 155.623C359.152 166.34 350.699 174.793 339.982 177.912L341.379 182.713C353.738 179.116 363.475 169.379 367.072 157.02L362.271 155.623ZM340.81 148.951L356.071 148.951L356.071 143.951L340.81 143.951L340.81 148.951ZM333.31 171.712L333.31 156.451L328.31 156.451L328.31 171.712L333.31 171.712ZM340.81 143.951C333.907 143.951 328.31 149.548 328.31 156.451L333.31 156.451C333.31 152.309 336.668 148.951 340.81 148.951L340.81 143.951ZM339.982 177.912C338.251 178.415 336.672 177.942 335.445 176.818C334.178 175.658 333.31 173.801 333.31 171.712L328.31 171.712C328.31 175.146 329.726 178.361 332.068 180.506C334.45 182.687 337.806 183.752 341.379 182.713L339.982 177.912ZM367.072 157.02C368.111 153.447 367.046 150.092 364.865 147.709C362.72 145.367 359.505 143.951 356.071 143.951L356.071 148.951C358.16 148.951 360.017 149.819 361.177 151.086C362.301 152.313 362.774 153.892 362.271 155.623L367.072 157.02Z" fill="white"/>
<path d="M64.2563 188H8.75635V168.25H29.2563C40.7563 140.75 52.2564 113.583 63.7564 86.75C75.423 59.75 87.0064 32.5 98.5064 4.99999C110.006 32.5 121.506 59.75 133.006 86.75C144.673 113.583 156.256 140.75 167.756 168.25H188.256V188H132.756V168.25H146.756C143.256 159.917 139.756 151.667 136.256 143.5C132.923 135.333 129.506 127.083 126.006 118.75H71.0063C66.3397 129.75 62.8397 138 60.5064 143.5C58.173 149 54.673 157.25 50.0063 168.25H64.2563V188ZM95.7564 59.25C92.7564 65.75 89.8397 72.5833 87.0064 79.75C84.3397 86.75 81.8397 93.1667 79.5064 99H117.506L100.756 59.25L98.2563 51C97.5897 53.6667 97.0064 55.5833 96.5063 56.75C96.173 57.9167 95.923 58.75 95.7564 59.25ZM266.278 188H205.778V168.25H225.528V32.75H205.778V13H266.278V32.75H246.278V168.25H266.278V188ZM344.409 87.75H316.159V78.75H325.159V66.5H291.909L334.909 10.75V57H345.909V66.5H334.909V78.75H344.409V87.75ZM325.159 38.75L311.159 57H325.159V38.75ZM481.831 177C476.997 181.167 471.414 184.417 465.081 186.75C458.747 188.917 452.081 190 445.081 190C438.747 190 432.581 189.333 426.581 188C420.581 186.5 415.081 184.583 410.081 182.25C405.081 179.917 400.581 177.25 396.581 174.25C392.747 171.25 389.747 168.083 387.581 164.75V135.75H407.331V158C411.664 161.333 416.831 164.25 422.831 166.75C428.831 169.083 435.581 170.25 443.081 170.25C447.414 170.25 451.581 169.667 455.581 168.5C459.581 167.167 463.164 165.333 466.331 163C469.331 160.5 471.747 157.417 473.581 153.75C475.414 150.083 476.331 145.833 476.331 141C476.331 138 476.081 135 475.581 132C475.247 129 474.414 126.417 473.081 124.25C470.914 120.75 468.331 118 465.331 116C462.497 113.833 459.164 111.833 455.331 110C449.331 107.5 442.831 105.333 435.831 103.5C428.831 101.667 422.331 99.1667 416.331 96C410.164 92.8333 404.997 88.4167 400.831 82.75C396.831 77.0833 394.747 69.0833 394.581 58.75C394.414 53.25 395.164 47.75 396.831 42.25C398.497 36.75 401.247 31.75 405.081 27.25C408.914 22.75 413.997 19.0833 420.331 16.25C426.664 13.4167 434.414 12 443.581 12C446.581 12 449.831 12.1667 453.331 12.5C456.831 12.8333 460.497 13.5 464.331 14.5C468.164 15.5 472.081 17 476.081 19C480.247 21 484.331 23.6667 488.331 27V51.5H468.581V36.75C465.414 35.4167 461.747 34.25 457.581 33.25C453.414 32.25 448.831 31.75 443.831 31.75C438.831 31.75 434.497 32.5833 430.831 34.25C427.164 35.75 424.164 37.8333 421.831 40.5C419.664 43 417.997 45.9167 416.831 49.25C415.831 52.4167 415.331 55.8333 415.331 59.5C415.331 64.5 416.497 68.5833 418.831 71.75C421.164 74.75 424.247 77.3333 428.081 79.5C434.081 82.6667 441.247 85.5 449.581 88C457.914 90.3333 465.914 93.3333 473.581 97C480.581 100.333 486.247 105.5 490.581 112.5C494.914 119.5 497.081 129.083 497.081 141.25C497.081 148.75 495.664 155.5 492.831 161.5C490.164 167.5 486.497 172.667 481.831 177ZM554.465 188H510.465V168H522.215V32.75H510.465V13H562.965C574.965 13 586.299 15.0833 596.965 19.25C607.632 23.25 616.965 29.0833 624.965 36.75C632.965 44.4167 639.299 53.6667 643.965 64.5C648.632 75.1667 650.965 87.25 650.965 100.75C650.965 110.583 649.215 120.667 645.715 131C642.382 141.333 636.882 150.667 629.215 159C621.549 167.5 611.549 174.5 599.215 180C587.049 185.333 572.132 188 554.465 188ZM542.965 32.75V168H560.465C570.299 168 579.465 166.417 587.965 163.25C596.465 160.083 603.882 155.5 610.215 149.5C616.382 143.667 621.215 136.667 624.715 128.5C628.382 120.167 630.215 110.833 630.215 100.5C630.215 90.1667 628.382 80.8333 624.715 72.5C621.215 64.1667 616.382 57 610.215 51C603.882 45.1667 596.465 40.6667 587.965 37.5C579.465 34.3333 570.299 32.75 560.465 32.75H542.965Z" fill="white"/>
</svg>
